<?xml version="1.0" encoding="utf-8"?>
<!-- Generator: Adobe Illustrator 25.1.0, SVG Export Plug-In . SVG Version: 6.00 Build 0)  -->
<svg version="1.1" id="Ebene_1" xmlns="http://www.w3.org/2000/svg" xmlns:xlink="http://www.w3.org/1999/xlink" x="0px" y="0px"
	 viewBox="0 0 200 200" style="enable-background:new 0 0 200 200;" xml:space="preserve">
<style type="text/css">
	.st0{fill:#FFFFFF;}
	.st1{fill:#DB2E2E;}
	.st2{enable-background:new    ;}
</style>
<g>
	<g id="fuel">
		<g id="Gruppe_6" transform="translate(-2164.867 -1045)">
			<g id="Linie_10">
				
					<rect x="2328.4" y="1120.8" transform="matrix(0.951 -0.3092 0.3092 0.951 -232.6092 776.7649)" class="st0" width="12" height="3"/>
			</g>
			<g id="Linie_11">
				
					<rect x="2318.5" y="1102.4" transform="matrix(0.809 -0.5878 0.5878 0.809 -205.0508 1575.679)" class="st0" width="7" height="2"/>
			</g>
			<g id="Linie_12">
				
					<rect x="2301.8" y="1084.2" transform="matrix(0.5877 -0.809 0.809 0.5877 73.0309 2314.7424)" class="st0" width="12" height="3"/>
			</g>
			<g id="Linie_13">
				
					<rect x="2283.2" y="1076.7" transform="matrix(0.309 -0.951 0.951 0.309 555.0612 2919.4001)" class="st0" width="7" height="2"/>
			</g>
			<g id="Linie_14">
				<rect x="2263.4" y="1065.7" class="st0" width="3" height="12"/>
			</g>
			<g id="Linie_15">
				
					<rect x="2242" y="1074.2" transform="matrix(0.9511 -0.309 0.309 0.9511 -223.2395 745.8391)" class="st0" width="2" height="7"/>
			</g>
			<g id="Linie_16">
				
					<rect x="2220.4" y="1079.7" transform="matrix(0.8089 -0.5879 0.5879 0.8089 -213.7533 1513.7347)" class="st0" width="3" height="12"/>
			</g>
			<g id="Linie_17">
				
					<rect x="2206.7" y="1099.9" transform="matrix(0.5879 -0.8089 0.8089 0.5879 17.1978 2240.4729)" class="st0" width="2" height="7"/>
			</g>
			<g id="Linie_18">
				
					<rect x="2193.8" y="1116.3" transform="matrix(0.309 -0.9511 0.9511 0.309 449.6117 2863.3706)" class="st1" width="3" height="12"/>
			</g>
		</g>
		<g id="noun_Fuel_1497232" transform="translate(83 47.687)">
			<g id="Pfad_8">
				<path class="st0" d="M25.7,10.5l0.8-0.6c-1-2.8-3.3-4.8-6.2-5.7v1.4c0,0,0.2,0.1,0.4,0.2c1.8,1,3,2.8,3.3,4.8l0.6,8.5v0
					c0,0.7-0.6,1.2-1.3,1.2c-0.7,0-1.2-0.6-1.2-1.2v-4.9c0-1.5-1.1-2.8-2.6-3V6.2c0-1-0.8-1.8-1.8-1.8h-7c-1,0-1.8,0.8-1.8,1.8v16.4
					H8v1.8h12.3v-1.8h-0.9v-9.4c0.5,0.2,0.9,0.6,0.9,1.2v4.9c0,1.7,1.4,3,3,3c1.7,0,3-1.4,3-3c0,0,0-0.1,0-0.1L25.7,10.5z M10.7,6.2
					h7v5.1h-7V6.2z"/>
			</g>
		</g>
		<g class="st2">
			<path class="st0" d="M167.9,91.9v3h5.2v2.1h-5.2v4.1h-2.6V89.8h8.5v2.1H167.9z"/>
		</g>
		<g class="st2">
			<path class="st1" d="M36,98.9v2.1h-8.7V89.8h8.5v2.1h-5.9v2.4h5.2v2h-5.2v2.6H36z"/>
		</g>
	</g>
</g>
</svg>
