<?xml version="1.0" encoding="utf-8"?>
<!-- Generator: Adobe Illustrator 25.1.0, SVG Export Plug-In . SVG Version: 6.00 Build 0)  -->
<svg version="1.1" id="Ebene_1" xmlns="http://www.w3.org/2000/svg" xmlns:xlink="http://www.w3.org/1999/xlink" x="0px" y="0px"
	 viewBox="0 0 40 40" style="enable-background:new 0 0 40 40;" xml:space="preserve">
<style type="text/css">
	.st0{fill:#79CF4F;}
</style>
<g>
	<g id="light_general">
		<g id="Gruppe_74">
			<g id="noun_high_beam_lights_340216" transform="translate(294.5 5.75)">
				<g id="Pfad_7">
					<path class="st0" d="M-275.8,3C-282,3-287,8-287,14.3s5,11.3,11.3,11.3c0.3,0,0.6-0.1,0.7-0.4c0.1-0.1,2.4-3.2,2.4-10.9
						s-2.3-10.8-2.4-10.9C-275.2,3.1-275.5,3-275.8,3z M-276.3,23.6c-5.2-0.3-9.1-4.7-8.8-9.9c0.3-4.8,4.1-8.6,8.8-8.8
						c0.5,1,1.8,3.8,1.8,9.4S-275.7,22.6-276.3,23.6z"/>
				</g>
			</g>
			<g id="Linie_20">
				<path class="st0" d="M32,16c-0.1,0-0.3,0-0.4-0.1l-7-3c-0.5-0.2-0.7-0.8-0.5-1.3s0.8-0.7,1.3-0.5l7,3c0.5,0.2,0.7,0.8,0.5,1.3
					C32.8,15.8,32.4,16,32,16z"/>
			</g>
			<g id="Linie_21">
				<path class="st0" d="M32,21c-0.1,0-0.3,0-0.4-0.1l-7-3c-0.5-0.2-0.7-0.8-0.5-1.3c0.2-0.5,0.8-0.7,1.3-0.5l7,3
					c0.5,0.2,0.7,0.8,0.5,1.3C32.8,20.8,32.4,21,32,21z"/>
			</g>
			<g id="Linie_22">
				<path class="st0" d="M32,26c-0.1,0-0.3,0-0.4-0.1l-7-3c-0.5-0.2-0.7-0.8-0.5-1.3c0.2-0.5,0.8-0.7,1.3-0.5l7,3
					c0.5,0.2,0.7,0.8,0.5,1.3C32.8,25.8,32.4,26,32,26z"/>
			</g>
			<g id="Linie_23">
				<path class="st0" d="M32,31c-0.1,0-0.3,0-0.4-0.1l-7-3c-0.5-0.2-0.7-0.8-0.5-1.3c0.2-0.5,0.8-0.7,1.3-0.5l7,3
					c0.5,0.2,0.7,0.8,0.5,1.3C32.8,30.8,32.4,31,32,31z"/>
			</g>
		</g>
	</g>
</g>
</svg>
