<svg xmlns="http://www.w3.org/2000/svg" xmlns:xlink="http://www.w3.org/1999/xlink" width="40" height="40" viewBox="0 0 40 40">
  <defs>
    <clipPath id="clip-light_beam">
      <rect width="40" height="40"/>
    </clipPath>
  </defs>
  <g id="light_beam" clip-path="url(#clip-light_beam)">
    <g id="noun_high_beam_lights_340216" data-name="noun_high beam lights_340216" transform="translate(294.5 5.75)">
      <path id="Pfad_7" data-name="Pfad 7" d="M22.25,14a11.25,11.25,0,0,0,0,22.5.938.938,0,0,0,.74-.362c.1-.125,2.385-3.155,2.385-10.888S23.087,14.487,22.99,14.362A.937.937,0,0,0,22.25,14Zm-.513,20.611a9.375,9.375,0,0,1,0-18.722c.526.965,1.763,3.824,1.763,9.361S22.263,33.646,21.737,34.611ZM36,27.438a.937.937,0,0,1-.937.938H28.187a.938.938,0,1,1,0-1.875h6.875A.937.937,0,0,1,36,27.438Zm0,4.375a.937.937,0,0,1-.937.938H28.187a.938.938,0,1,1,0-1.875h6.875A.937.937,0,0,1,36,31.813Zm0-8.75a.937.937,0,0,1-.937.938H28.187a.938.938,0,1,1,0-1.875h6.875A.937.937,0,0,1,36,23.063Zm-8.75-4.375a.937.937,0,0,1,.938-.937h6.875a.938.938,0,0,1,0,1.875H28.187A.937.937,0,0,1,27.25,18.688Z" transform="translate(-298 -11)" fill="#4fa0cf"/>
    </g>
  </g>
</svg>
