<svg xmlns="http://www.w3.org/2000/svg" xmlns:xlink="http://www.w3.org/1999/xlink" width="40" height="40" viewBox="0 0 40 40">
  <defs>
    <clipPath id="clip-lock_unlocked">
      <rect width="40" height="40"/>
    </clipPath>
  </defs>
  <g id="lock_unlocked" clip-path="url(#clip-lock_unlocked)">
    <g id="Gruppe_76" data-name="Gruppe 76" transform="translate(2.564 4.287)">
      <path id="Pfad_15" data-name="Pfad 15" d="M28.6,30.242H26.97l-1.05-3.261a3.907,3.907,0,0,0-2.9-2.681v2.764a1.319,1.319,0,0,1,.47.719L24.731,31.6a.285.285,0,0,1-.276.359H10.416a.285.285,0,0,1-.276-.359l1.216-3.841a1.543,1.543,0,0,1,.47-.691V24.3a3.952,3.952,0,0,0-2.9,2.681l-1.05,3.261h-1.6A1.268,1.268,0,0,0,5,31.513v.719A1.268,1.268,0,0,0,6.271,33.5h.442A15.723,15.723,0,0,0,6.326,37.1v6.163A1.268,1.268,0,0,0,7.6,44.529H9.726A1.268,1.268,0,0,0,11,43.258V41.3h12.85v1.962a1.251,1.251,0,0,0,1.271,1.271h2.128a1.268,1.268,0,0,0,1.271-1.271V37.1a17.438,17.438,0,0,0-.387-3.593h.47a1.268,1.268,0,0,0,1.271-1.271v-.719A1.268,1.268,0,0,0,28.6,30.242ZM12.848,37.786h-2.6a.8.8,0,0,1-.774-.8V35.769a.8.8,0,0,1,.912-.774l2.4.387a.765.765,0,0,1,.636.608l.166.829A.781.781,0,0,1,12.848,37.786Zm12.546-.8a.8.8,0,0,1-.8.8h-2.57a.813.813,0,0,1-.774-.967l.166-.829a.764.764,0,0,1,.636-.608l2.4-.387a.793.793,0,0,1,.912.774v1.216Z" transform="translate(0 -15.703)" fill="#333"/>
      <path id="Pfad_16" data-name="Pfad 16" d="M36.974,12.521h6.08a.772.772,0,0,0,.774-.774V7.022a.772.772,0,0,0-.774-.774H42.5V5.087a2.487,2.487,0,1,0-4.974,0V6.248h-.553a.772.772,0,0,0-.774.774v4.726A.756.756,0,0,0,36.974,12.521Zm3.51-3.206v1.161a.5.5,0,0,1-.995,0V9.315a.811.811,0,0,1-.332-.636.829.829,0,1,1,1.658,0A.656.656,0,0,1,40.483,9.315ZM39.1,5.06a.912.912,0,1,1,1.824,0V6.22H39.1Z" transform="translate(-22.578 0)" fill="#333"/>
    </g>
  </g>
</svg>
