<svg xmlns="http://www.w3.org/2000/svg" xmlns:xlink="http://www.w3.org/1999/xlink" width="40" height="40" viewBox="0 0 40 40">
  <defs>
    <clipPath id="clip-seatbelt_closed">
      <rect width="40" height="40"/>
    </clipPath>
  </defs>
  <g id="seatbelt_closed" clip-path="url(#clip-seatbelt_closed)">
    <g id="noun_seatbelt_2695901" transform="translate(2.594 1.999)">
      <path id="Pfad_1" data-name="Pfad 1" d="M17.167,19.782a16.544,16.544,0,0,1,6.276,1.164c.213-2.252.41-5.85-.233-7.956a8.753,8.753,0,0,0-.641-1.586l-8.761,8.688A18.229,18.229,0,0,1,17.167,19.782Z" transform="translate(0.652 1.023)" fill="#333"/>
      <path id="Pfad_2" data-name="Pfad 2" d="M10.426,23.02a7.091,7.091,0,0,0-.291,3.491,26.342,26.342,0,0,0,1.632,6.037,1.686,1.686,0,0,0,3.1-1.334,22.968,22.968,0,0,1-1.392-5.191,4.3,4.3,0,0,1-.007-1.293,17.654,17.654,0,0,1,4.055-.7,17.693,17.693,0,0,1,4.048.7,4.229,4.229,0,0,1,0,1.3,23.573,23.573,0,0,1-1.392,5.191,1.686,1.686,0,1,0,3.1,1.334,26.342,26.342,0,0,0,1.632-6.037,7.089,7.089,0,0,0-.289-3.484,12.8,12.8,0,0,0-7.1-1.908A12.866,12.866,0,0,0,10.426,23.02Z" transform="translate(0.299 1.934)" fill="#333"/>
      <path id="Pfad_3" data-name="Pfad 3" d="M17.435,8.87c-3.185,0-5.061,1.124-6.043,4.358a21.971,21.971,0,0,0-.323,6.918L21.385,9.915A6.46,6.46,0,0,0,17.435,8.87Z" transform="translate(0.384 0.785)" fill="#333"/>
      <path id="Pfad_4" data-name="Pfad 4" d="M11.453,19.18,7.187,23.412a1.125,1.125,0,1,0,1.585,1.6l1.143-1.121a5.534,5.534,0,0,1,.809-.684A15.821,15.821,0,0,0,11.453,19.18Z" transform="translate(0 1.752)" fill="#333"/>
      <path id="Pfad_5" data-name="Pfad 5" d="M26.232,22.667a8.988,8.988,0,0,0-3.615-2.538,13.749,13.749,0,0,0,.82,2.993,5.127,5.127,0,0,1,1.038.952,1.125,1.125,0,0,0,1.757-1.407Z" transform="translate(1.478 1.841)" fill="#333"/>
      <path id="Pfad_6" data-name="Pfad 6" d="M21.943,11.81l2.839-2.816A1.124,1.124,0,0,0,23.2,7.4L20.49,10.084A5.052,5.052,0,0,1,21.943,11.81Z" transform="translate(1.279 0.616)" fill="#333"/>
      <circle id="Ellipse_8" data-name="Ellipse 8" cx="3.935" cy="3.935" r="3.935" transform="translate(13.884 0.501)" fill="#333"/>
    </g>
  </g>
</svg>
