<?xml version="1.0" encoding="UTF-8"?><svg id="Ebene_1" xmlns="http://www.w3.org/2000/svg" viewBox="0 0 351 355.2"><defs><style>.cls-1{fill:#fff;}.cls-2{isolation:isolate;}.cls-3{stroke-miterlimit:4;stroke-width:2px;}.cls-3,.cls-4,.cls-5{fill:none;}.cls-3,.cls-5{stroke:#fff;}.cls-4{stroke:#d40000;}.cls-4,.cls-5{stroke-miterlimit:4;stroke-width:3px;}.cls-6{fill:#d40000;}</style></defs><g id="dünne_Striche_Neu"><line class="cls-3" x1="138.6" y1="13.3" x2="140.2" y2="20.3"/><line class="cls-3" x1="71.8" y1="44.5" x2="76.1" y2="50.2"/><line class="cls-3" x1="23.9" y1="101.3" x2="30.3" y2="104.6"/><line class="cls-3" x1="5.1" y1="172.6" x2="12.2" y2="172.9"/><line class="cls-3" x1="18.3" y1="245.9" x2="24.9" y2="243.2"/><line class="cls-3" x1="212.4" y1="13.3" x2="210.8" y2="20.3"/><line class="cls-3" x1="279.2" y1="44.5" x2="274.9" y2="50.2"/><line class="cls-3" x1="327.1" y1="101.3" x2="320.7" y2="104.6"/><line class="cls-3" x1="345.9" y1="172.6" x2="338.8" y2="172.9"/><line class="cls-3" x1="332.7" y1="245.9" x2="326.1" y2="243.2"/></g><g id="Dicke_Stricke_neu"><line class="cls-5" x1="175.5" y1="9.3" x2="175.5" y2="23.4"/><line class="cls-5" x1="247.5" y1="25.2" x2="241.6" y2="38"/><line class="cls-5" x1="306.1" y1="70.2" x2="295.3" y2="79.2"/><line class="cls-5" x1="340.1" y1="135.6" x2="326.5" y2="139.2"/><line class="cls-5" x1="343.5" y1="209" x2="329.6" y2="206.5"/><line class="cls-5" x1="315.1" y1="277.7" x2="303.5" y2="269.6"/><line class="cls-5" x1="103.5" y1="25.2" x2="109.4" y2="38"/><line class="cls-4" x1="45.8" y1="70" x2="56.6" y2="79"/><line class="cls-5" x1="11" y1="134.5" x2="24.7" y2="138.1"/><line class="cls-5" x1="7.4" y1="208.3" x2="21.3" y2="205.8"/><line class="cls-5" x1="35.2" y1="276.6" x2="46.8" y2="268.5"/></g><g id="Zahlen"><g class="cls-2"><path class="cls-1" d="M53.7,268.8c-.9-.5-1.5-1.3-2-2.4-.5-1-.7-2.3-.7-3.7s.2-2.7,.7-3.7,1.2-1.8,2-2.4c.9-.5,1.8-.8,2.9-.8s2.1,.3,2.9,.8c.9,.5,1.5,1.3,2,2.4,.5,1,.7,2.3,.7,3.7s-.2,2.7-.7,3.7-1.2,1.8-2,2.4c-.9,.5-1.8,.8-2.9,.8s-2-.2-2.9-.8Zm4.9-2.8c.5-.7,.7-1.8,.7-3.2,0-1.5-.2-2.5-.7-3.2s-1.1-1-1.9-1-1.4,.3-1.9,1-.7,1.8-.7,3.2c0,1.5,.2,2.5,.7,3.2s1.1,1,1.9,1c.8,.1,1.4-.3,1.9-1Z"/></g><g class="cls-2"><path class="cls-1" d="M37.7,206.3v2.5h-10v-2l5.1-4.8c.5-.5,.9-1,1.1-1.3,.2-.4,.3-.7,.3-1.1,0-.5-.2-.9-.5-1.2s-.9-.4-1.6-.4c-.6,0-1.1,.1-1.6,.3s-.9,.6-1.2,1l-2.2-1.4c.5-.8,1.2-1.4,2.1-1.8s2-.7,3.1-.7c1,0,1.9,.2,2.6,.5s1.3,.8,1.7,1.4,.6,1.3,.6,2.1c0,.7-.2,1.4-.5,2s-.9,1.4-1.8,2.2l-3.1,2.9h5.9v-.2Z"/><path class="cls-1" d="M41.7,208.2c-.9-.5-1.5-1.3-2-2.4-.5-1-.7-2.3-.7-3.7s.2-2.7,.7-3.7,1.2-1.8,2-2.4c.9-.5,1.8-.8,2.9-.8s2.1,.3,2.9,.8c.9,.5,1.5,1.3,2,2.4,.5,1,.7,2.3,.7,3.7s-.2,2.7-.7,3.7-1.2,1.8-2,2.4c-.9,.5-1.8,.8-2.9,.8s-2-.2-2.9-.8Zm4.8-2.8c.5-.7,.7-1.8,.7-3.2,0-1.5-.2-2.5-.7-3.2s-1.1-1-1.9-1-1.4,.3-1.9,1-.7,1.8-.7,3.2c0,1.5,.2,2.5,.7,3.2s1.1,1,1.9,1c.9,.1,1.5-.3,1.9-1Z"/></g><g class="cls-2"><path class="cls-1" d="M41.4,145.5h-2.2v2.8h-3v-2.8h-7.1v-2.1l6.3-8.4h3.2l-5.8,8h3.6v-2.5h2.9v2.5h2.2l-.1,2.5h0Z"/><path class="cls-1" d="M45.1,147.7c-.9-.5-1.5-1.3-2-2.4-.5-1-.7-2.3-.7-3.7s.2-2.7,.7-3.7,1.2-1.8,2-2.4c.9-.5,1.8-.8,2.9-.8s2.1,.3,2.9,.8c.9,.5,1.5,1.3,2,2.4,.5,1,.7,2.3,.7,3.7s-.2,2.7-.7,3.7-1.2,1.8-2,2.4c-.9,.5-1.8,.8-2.9,.8s-2-.2-2.9-.8Zm4.9-2.8c.5-.7,.7-1.8,.7-3.2,0-1.5-.2-2.5-.7-3.2s-1.1-1-1.9-1-1.4,.3-1.9,1-.7,1.8-.7,3.2c0,1.5,.2,2.5,.7,3.2s1.1,1,1.9,1c.8,.1,1.4-.3,1.9-1Z"/></g><g class="cls-2"><path class="cls-6" d="M68.9,85c.7,.3,1.2,.8,1.7,1.5,.4,.6,.6,1.4,.6,2.2,0,.9-.2,1.7-.7,2.3-.4,.7-1,1.2-1.8,1.5-.8,.4-1.6,.5-2.6,.5-1.9,0-3.3-.6-4.4-1.7-1.1-1.1-1.6-2.8-1.6-4.9,0-1.5,.3-2.8,.9-3.9,.6-1.1,1.4-1.9,2.4-2.5s2.2-.8,3.5-.8c.7,0,1.4,.1,2,.2,.7,.2,1.2,.4,1.7,.7l-1.1,2.3c-.7-.4-1.5-.7-2.5-.7-1.1,0-2,.3-2.7,1s-1,1.6-1.1,2.9c.8-.8,1.9-1.2,3.3-1.2,.9,.1,1.7,.3,2.4,.6Zm-1.4,5.2c.4-.4,.6-.8,.6-1.4s-.2-1.1-.6-1.5-1-.5-1.6-.5c-.7,0-1.2,.2-1.7,.6-.4,.4-.6,.9-.6,1.4s.2,1.1,.6,1.4,1,.6,1.7,.6,1.2-.2,1.6-.6Z"/><path class="cls-6" d="M75,92.2c-.9-.5-1.5-1.3-2-2.4-.5-1-.7-2.3-.7-3.7s.2-2.7,.7-3.7,1.2-1.8,2-2.4c.9-.5,1.8-.8,2.9-.8s2.1,.3,2.9,.8c.9,.5,1.5,1.3,2,2.4,.5,1,.7,2.3,.7,3.7s-.2,2.7-.7,3.7-1.2,1.8-2,2.4c-.9,.5-1.8,.8-2.9,.8s-2-.2-2.9-.8Zm4.9-2.8c.5-.7,.7-1.8,.7-3.2,0-1.5-.2-2.5-.7-3.2s-1.1-1-1.9-1-1.4,.3-1.9,1-.7,1.8-.7,3.2c0,1.5,.2,2.5,.7,3.2s1.1,1,1.9,1c.8,.1,1.4-.3,1.9-1Z"/></g><g class="cls-2"><path class="cls-1" d="M123.1,48.4c.3,.5,.5,1.1,.5,1.8,0,.8-.2,1.5-.7,2.2s-1.1,1.1-2,1.4c-.8,.3-1.8,.5-2.9,.5s-2.1-.2-2.9-.5-1.5-.8-2-1.4-.7-1.3-.7-2.2c0-.7,.2-1.3,.5-1.8s.8-1,1.5-1.3c-.5-.3-.9-.7-1.1-1.1-.3-.5-.4-1-.4-1.6,0-.8,.2-1.4,.6-2s1-1,1.8-1.3,1.7-.5,2.7-.5,1.9,.2,2.7,.5,1.4,.8,1.8,1.3c.4,.6,.6,1.2,.6,2,0,.6-.1,1.1-.4,1.6s-.7,.8-1.2,1.1c.7,.4,1.2,.8,1.6,1.3Zm-3.3,3.2c.4-.3,.7-.8,.7-1.4s-.2-1-.7-1.4-1.1-.5-1.8-.5c-.8,0-1.4,.2-1.8,.5s-.7,.8-.7,1.4,.2,1.1,.7,1.4,1,.5,1.8,.5,1.4-.2,1.8-.5Zm-3.3-8.3c-.4,.3-.6,.7-.6,1.2s.2,.9,.6,1.2,.9,.4,1.5,.4,1.1-.1,1.5-.4c.4-.3,.6-.7,.6-1.2s-.2-.9-.6-1.2-.9-.4-1.5-.4c-.6,0-1.1,.1-1.5,.4Z"/><path class="cls-1" d="M127.8,53.5c-.9-.5-1.5-1.3-2-2.4-.5-1-.7-2.3-.7-3.7s.2-2.7,.7-3.7,1.2-1.8,2-2.4c.9-.5,1.8-.8,2.9-.8s2.1,.3,2.9,.8c.9,.5,1.5,1.3,2,2.4,.5,1,.7,2.3,.7,3.7s-.2,2.7-.7,3.7-1.2,1.8-2,2.4c-.9,.5-1.8,.8-2.9,.8s-2.1-.2-2.9-.8Zm4.8-2.8c.5-.7,.7-1.8,.7-3.2,0-1.5-.2-2.5-.7-3.2s-1.1-1-1.9-1-1.4,.3-1.9,1-.7,1.8-.7,3.2c0,1.5,.2,2.5,.7,3.2s1.1,1,1.9,1c.8,.1,1.5-.3,1.9-1Z"/></g><g class="cls-2"><path class="cls-1" d="M165.2,29.7v13.3h-3.1v-10.8h-2.7v-2.5h5.8Z"/><path class="cls-1" d="M170.3,42.4c-.9-.5-1.5-1.3-2-2.4-.5-1-.7-2.3-.7-3.7s.2-2.7,.7-3.7,1.2-1.8,2-2.4c.9-.5,1.8-.8,2.9-.8s2.1,.3,2.9,.8c.9,.5,1.5,1.3,2,2.4,.5,1,.7,2.3,.7,3.7s-.2,2.7-.7,3.7-1.2,1.8-2,2.4c-.9,.5-1.8,.8-2.9,.8s-2.1-.2-2.9-.8Zm4.8-2.8c.5-.7,.7-1.8,.7-3.2,0-1.5-.2-2.5-.7-3.2s-1.1-1-1.9-1-1.4,.3-1.9,1-.7,1.8-.7,3.2c0,1.5,.2,2.5,.7,3.2s1.1,1,1.9,1c.7,.1,1.5-.3,1.9-1Z"/><path class="cls-1" d="M183.2,42.4c-.9-.5-1.5-1.3-2-2.4-.5-1-.7-2.3-.7-3.7s.2-2.7,.7-3.7,1.2-1.8,2-2.4c.9-.5,1.8-.8,2.9-.8s2.1,.3,2.9,.8c.9,.5,1.5,1.3,2,2.4,.5,1,.7,2.3,.7,3.7s-.2,2.7-.7,3.7-1.2,1.8-2,2.4c-.9,.5-1.8,.8-2.9,.8s-2.1-.2-2.9-.8Zm4.8-2.8c.5-.7,.7-1.8,.7-3.2,0-1.5-.2-2.5-.7-3.2s-1.1-1-1.9-1-1.4,.3-1.9,1-.7,1.8-.7,3.2c0,1.5,.2,2.5,.7,3.2s1.1,1,1.9,1c.8,.1,1.5-.3,1.9-1Z"/></g><g class="cls-2"><path class="cls-1" d="M218.2,40.7v13.3h-3.1v-10.8h-2.7v-2.5h5.8Z"/><path class="cls-1" d="M230.5,51.5v2.5h-10.1v-2l5.1-4.8c.5-.5,.9-1,1.1-1.3,.2-.4,.3-.7,.3-1.1,0-.5-.2-.9-.5-1.2s-.9-.4-1.6-.4c-.6,0-1.1,.1-1.6,.3s-.9,.6-1.2,1l-2.2-1.4c.5-.8,1.2-1.4,2.1-1.8,.9-.4,2-.7,3.1-.7,1,0,1.9,.2,2.6,.5,.7,.3,1.3,.8,1.7,1.4s.6,1.3,.6,2.1c0,.7-.2,1.4-.5,2s-.9,1.4-1.8,2.2l-3.1,2.9h6v-.2Z"/><path class="cls-1" d="M234.4,53.4c-.9-.5-1.5-1.3-2-2.4-.5-1-.7-2.3-.7-3.7s.2-2.7,.7-3.7,1.2-1.8,2-2.4c.9-.5,1.8-.8,2.9-.8s2.1,.3,2.9,.8c.9,.5,1.5,1.3,2,2.4,.5,1,.7,2.3,.7,3.7s-.2,2.7-.7,3.7-1.2,1.8-2,2.4c-.9,.5-1.8,.8-2.9,.8s-2-.2-2.9-.8Zm4.9-2.8c.5-.7,.7-1.8,.7-3.2,0-1.5-.2-2.5-.7-3.2s-1.1-1-1.9-1-1.4,.3-1.9,1-.7,1.8-.7,3.2c0,1.5,.2,2.5,.7,3.2s1.1,1,1.9,1c.8,.1,1.4-.3,1.9-1Z"/></g><g class="cls-2"><path class="cls-1" d="M266.6,79.5v13.3h-3.1v-10.8h-2.7v-2.5h5.8Z"/><path class="cls-1" d="M281.1,90h-2.2v2.8h-3v-2.8h-7.2v-2.1l6.3-8.4h3.2l-5.8,8h3.6v-2.5h2.9v2.5h2.2v2.5Z"/><path class="cls-1" d="M284.8,92.2c-.9-.5-1.5-1.3-2-2.4-.5-1-.7-2.3-.7-3.7s.2-2.7,.7-3.7,1.2-1.8,2-2.4c.9-.5,1.8-.8,2.9-.8s2.1,.3,2.9,.8c.9,.5,1.5,1.3,2,2.4,.5,1,.7,2.3,.7,3.7s-.2,2.7-.7,3.7-1.2,1.8-2,2.4c-.9,.5-1.8,.8-2.9,.8s-2.1-.2-2.9-.8Zm4.8-2.8c.5-.7,.7-1.8,.7-3.2,0-1.5-.2-2.5-.7-3.2s-1.1-1-1.9-1-1.4,.3-1.9,1-.7,1.8-.7,3.2c0,1.5,.2,2.5,.7,3.2s1.1,1,1.9,1c.8,.1,1.5-.3,1.9-1Z"/></g><g class="cls-2"><path class="cls-1" d="M296.1,134.9v13.3h-3.1v-10.8h-2.7v-2.5h5.8Z"/><path class="cls-1" d="M307.1,140.4c.7,.3,1.2,.8,1.7,1.5,.4,.6,.6,1.4,.6,2.2,0,.9-.2,1.7-.7,2.3-.4,.7-1,1.2-1.8,1.5-.8,.4-1.6,.5-2.6,.5-1.9,0-3.3-.6-4.4-1.7-1.1-1.1-1.6-2.8-1.6-4.9,0-1.5,.3-2.8,.9-3.9,.6-1.1,1.4-1.9,2.4-2.5s2.2-.8,3.5-.8c.7,0,1.4,.1,2,.2,.7,.2,1.2,.4,1.7,.7l-1.1,2.3c-.7-.4-1.5-.7-2.5-.7-1.1,0-2,.3-2.7,1s-1,1.6-1.1,2.9c.8-.8,1.9-1.2,3.3-1.2,1,.1,1.7,.3,2.4,.6Zm-1.3,5.2c.4-.4,.6-.8,.6-1.4s-.2-1.1-.6-1.5-1-.5-1.6-.5c-.7,0-1.2,.2-1.7,.6-.4,.4-.6,.9-.6,1.4s.2,1.1,.6,1.4c.4,.3,1,.6,1.7,.6s1.2-.2,1.6-.6Z"/><path class="cls-1" d="M313.3,147.6c-.9-.5-1.5-1.3-2-2.4-.5-1-.7-2.3-.7-3.7s.2-2.7,.7-3.7,1.2-1.8,2-2.4c.8-.6,1.8-.8,2.9-.8s2.1,.3,2.9,.8c.9,.5,1.5,1.3,2,2.4,.5,1,.7,2.3,.7,3.7s-.2,2.7-.7,3.7-1.2,1.8-2,2.4c-.9,.5-1.8,.8-2.9,.8-1.1,.1-2.1-.2-2.9-.8Zm4.8-2.8c.5-.7,.7-1.8,.7-3.2,0-1.5-.2-2.5-.7-3.2s-1.1-1-1.9-1-1.4,.3-1.9,1-.7,1.8-.7,3.2c0,1.5,.2,2.5,.7,3.2s1.1,1,1.9,1c.8,.1,1.5-.3,1.9-1Z"/></g><g class="cls-2"><path class="cls-1" d="M298.7,195.5v13.3h-3.1v-10.8h-2.7v-2.5h5.8Z"/><path class="cls-1" d="M311.6,203.1c.3,.5,.5,1.1,.5,1.8,0,.8-.2,1.5-.7,2.2s-1.1,1.1-2,1.4c-.8,.3-1.8,.5-2.9,.5s-2.1-.2-2.9-.5-1.5-.8-2-1.4c-.5-.6-.7-1.3-.7-2.2,0-.7,.2-1.3,.5-1.8s.8-1,1.5-1.3c-.5-.3-.9-.7-1.1-1.1-.3-.5-.4-1-.4-1.6,0-.8,.2-1.4,.6-2s1-1,1.8-1.3,1.7-.5,2.7-.5,1.9,.2,2.7,.5c.8,.3,1.4,.8,1.8,1.3,.4,.6,.6,1.2,.6,2,0,.6-.1,1.1-.4,1.6s-.7,.8-1.2,1.1c.8,.4,1.3,.8,1.6,1.3Zm-3.2,3.2c.5-.3,.7-.8,.7-1.4s-.2-1-.7-1.4-1.1-.5-1.8-.5c-.8,0-1.4,.2-1.8,.5s-.7,.8-.7,1.4,.2,1.1,.7,1.4,1,.5,1.8,.5c.7,0,1.3-.2,1.8-.5Zm-3.4-8.3c-.4,.3-.6,.7-.6,1.2s.2,.9,.6,1.2,.9,.4,1.5,.4,1.1-.1,1.5-.4,.6-.7,.6-1.2-.2-.9-.6-1.2-.9-.4-1.5-.4-1.1,.1-1.5,.4Z"/><path class="cls-1" d="M316.3,208.2c-.9-.5-1.5-1.3-2-2.4-.5-1-.7-2.3-.7-3.7s.2-2.7,.7-3.7,1.2-1.8,2-2.4c.9-.5,1.8-.8,2.9-.8s2.1,.3,2.9,.8c.9,.5,1.5,1.3,2,2.4,.5,1,.7,2.3,.7,3.7s-.2,2.7-.7,3.7-1.2,1.8-2,2.4c-.9,.5-1.8,.8-2.9,.8s-2-.2-2.9-.8Zm4.9-2.8c.5-.7,.7-1.8,.7-3.2,0-1.5-.2-2.5-.7-3.2s-1.1-1-1.9-1-1.4,.3-1.9,1-.7,1.8-.7,3.2c0,1.5,.2,2.5,.7,3.2s1.1,1,1.9,1c.8,.1,1.4-.3,1.9-1Z"/></g><g class="cls-2"><path class="cls-1" d="M273.1,266.9v2.5h-10.1v-2l5.1-4.8c.5-.5,.9-1,1.1-1.3,.2-.4,.3-.7,.3-1.1,0-.5-.2-.9-.5-1.2s-.9-.4-1.6-.4c-.6,0-1.1,.1-1.6,.3s-.9,.6-1.2,1l-2.2-1.4c.5-.8,1.2-1.4,2.1-1.8,.9-.4,2-.7,3.1-.7,1,0,1.9,.2,2.6,.5s1.3,.8,1.7,1.4c.4,.6,.6,1.3,.6,2.1,0,.7-.2,1.4-.5,2s-.9,1.4-1.8,2.2l-3.1,2.9h6v-.2Z"/><path class="cls-1" d="M277.1,268.8c-.9-.5-1.5-1.3-2-2.4-.5-1-.7-2.3-.7-3.7s.2-2.7,.7-3.7,1.2-1.8,2-2.4c.8-.6,1.8-.8,2.9-.8s2.1,.3,2.9,.8c.9,.5,1.5,1.3,2,2.4,.5,1,.7,2.3,.7,3.7s-.2,2.7-.7,3.7-1.2,1.8-2,2.4c-.9,.5-1.8,.8-2.9,.8-1.1,.1-2-.2-2.9-.8Zm4.8-2.8c.5-.7,.7-1.8,.7-3.2,0-1.5-.2-2.5-.7-3.2s-1.1-1-1.9-1-1.4,.3-1.9,1-.7,1.8-.7,3.2c0,1.5,.2,2.5,.7,3.2s1.1,1,1.9,1c.9,.1,1.5-.3,1.9-1Z"/><path class="cls-1" d="M290,268.8c-.9-.5-1.5-1.3-2-2.4-.5-1-.7-2.3-.7-3.7s.2-2.7,.7-3.7,1.2-1.8,2-2.4c.8-.6,1.8-.8,2.9-.8s2.1,.3,2.9,.8,1.5,1.3,2,2.4c.5,1,.7,2.3,.7,3.7s-.2,2.7-.7,3.7-1.2,1.8-2,2.4-1.8,.8-2.9,.8-2-.2-2.9-.8Zm4.9-2.8c.5-.7,.7-1.8,.7-3.2,0-1.5-.2-2.5-.7-3.2s-1.1-1-1.9-1-1.4,.3-1.9,1-.7,1.8-.7,3.2c0,1.5,.2,2.5,.7,3.2s1.1,1,1.9,1c.8,.1,1.4-.3,1.9-1Z"/></g></g></svg>