<svg width="351" height="355.2" xmlns="http://www.w3.org/2000/svg">

 <g>
  <title>Layer 1</title>
  <g id="svg_60">
   <g id="dünne_Striche_Neu">
    <line id="svg_1" stroke="#fff" fill="none" stroke-width="2px" stroke-miterlimit="4" y2="16.014" x2="140.2" y1="9.014" x1="138.6" class="cls-3"/>
    <line id="svg_2" stroke="#fff" fill="none" stroke-width="2px" stroke-miterlimit="4" y2="45.914" x2="76.1" y1="40.214" x1="71.8" class="cls-3"/>
    <line id="svg_3" stroke="#fff" fill="none" stroke-width="2px" stroke-miterlimit="4" y2="100.314" x2="30.3" y1="97.014" x1="23.9" class="cls-3"/>
    <line id="svg_4" stroke="#fff" fill="none" stroke-width="2px" stroke-miterlimit="4" y2="168.614" x2="12.2" y1="168.314" x1="5.1" class="cls-3"/>
    <line id="svg_5" stroke="#fff" fill="none" stroke-width="2px" stroke-miterlimit="4" y2="238.914" x2="24.9" y1="241.614" x1="18.3" class="cls-3"/>
    <line id="svg_6" stroke="#fff" fill="none" stroke-width="2px" stroke-miterlimit="4" y2="16.014" x2="210.8" y1="9.014" x1="212.4" class="cls-3"/>
    <line id="svg_7" stroke="#fff" fill="none" stroke-width="2px" stroke-miterlimit="4" y2="45.914" x2="274.9" y1="40.214" x1="279.2" class="cls-3"/>
    <line id="svg_8" stroke="#fff" fill="none" stroke-width="2px" stroke-miterlimit="4" y2="100.314" x2="320.7" y1="97.014" x1="327.1" class="cls-3"/>
    <line id="svg_9" stroke="#fff" fill="none" stroke-width="2px" stroke-miterlimit="4" y2="168.614" x2="338.8" y1="168.314" x1="345.9" class="cls-3"/>
    <line id="svg_10" stroke="#fff" fill="none" stroke-width="2px" stroke-miterlimit="4" y2="238.914" x2="326.1" y1="241.614" x1="332.7" class="cls-3"/>
   </g>
   <g id="Dicke_Stricke_neu">
    <line id="svg_11" stroke-width="3px" stroke-miterlimit="4" stroke="#fff" fill="none" y2="19.114" x2="175.5" y1="5.014" x1="175.5" class="cls-5"/>
    <line id="svg_12" stroke-width="3px" stroke-miterlimit="4" stroke="#fff" fill="none" y2="33.714" x2="241.6" y1="20.914" x1="247.5" class="cls-5"/>
    <line id="svg_13" stroke-width="3px" stroke-miterlimit="4" stroke="#fff" fill="none" y2="74.914" x2="295.3" y1="65.914" x1="306.1" class="cls-5"/>
    <line id="svg_14" stroke-width="3px" stroke-miterlimit="4" stroke="#fff" fill="none" y2="134.914" x2="326.5" y1="131.314" x1="340.1" class="cls-5"/>
    <line id="svg_15" stroke-width="3px" stroke-miterlimit="4" stroke="#fff" fill="none" y2="202.214" x2="329.6" y1="204.714" x1="343.5" class="cls-5"/>
    <line id="svg_16" stroke-width="3px" stroke-miterlimit="4" stroke="#fff" fill="none" y2="265.314" x2="303.5" y1="273.414" x1="315.1" class="cls-5"/>
    <line id="svg_17" stroke-width="3px" stroke-miterlimit="4" stroke="#fff" fill="none" y2="33.714" x2="109.4" y1="20.914" x1="103.5" class="cls-5"/>
    <line id="svg_18" stroke-width="3px" stroke-miterlimit="4" stroke="#d40000" fill="none" y2="74.714" x2="56.6" y1="65.714" x1="45.8" class="cls-4"/>
    <line id="svg_19" stroke-width="3px" stroke-miterlimit="4" stroke="#fff" fill="none" y2="133.814" x2="24.7" y1="130.214" x1="11" class="cls-5"/>
    <line id="svg_20" stroke-width="3px" stroke-miterlimit="4" stroke="#fff" fill="none" y2="201.514" x2="21.3" y1="204.014" x1="7.4" class="cls-5"/>
    <line id="svg_21" stroke-width="3px" stroke-miterlimit="4" stroke="#fff" fill="none" y2="264.214" x2="46.8" y1="272.314" x1="35.2" class="cls-5"/>
   </g>
   <g id="Zahlen">
    <g id="svg_22" isolation="isolate" class="cls-2">
     <path id="svg_23" fill="#fff" d="m53.7,264.514c-0.9,-0.5 -1.5,-1.3 -2,-2.4c-0.5,-1 -0.7,-2.3 -0.7,-3.7s0.2,-2.7 0.7,-3.7s1.2,-1.8 2,-2.4c0.9,-0.5 1.8,-0.8 2.9,-0.8s2.1,0.3 2.9,0.8c0.9,0.5 1.5,1.3 2,2.4c0.5,1 0.7,2.3 0.7,3.7s-0.2,2.7 -0.7,3.7s-1.2,1.8 -2,2.4c-0.9,0.5 -1.8,0.8 -2.9,0.8s-2,-0.2 -2.9,-0.8zm4.9,-2.8c0.5,-0.7 0.7,-1.8 0.7,-3.2c0,-1.5 -0.2,-2.5 -0.7,-3.2s-1.1,-1 -1.9,-1s-1.4,0.3 -1.9,1s-0.7,1.8 -0.7,3.2c0,1.5 0.2,2.5 0.7,3.2s1.1,1 1.9,1c0.8,0.1 1.4,-0.3 1.9,-1z" class="cls-1"/>
    </g>
    <g id="svg_24" isolation="isolate" class="cls-2">
     <path id="svg_25" fill="#fff" d="m37.7,202.014l0,2.5l-10,0l0,-2l5.1,-4.8c0.5,-0.5 0.9,-1 1.1,-1.3c0.2,-0.4 0.3,-0.7 0.3,-1.1c0,-0.5 -0.2,-0.9 -0.5,-1.2s-0.9,-0.4 -1.6,-0.4c-0.6,0 -1.1,0.1 -1.6,0.3s-0.9,0.6 -1.2,1l-2.2,-1.4c0.5,-0.8 1.2,-1.4 2.1,-1.8s2,-0.7 3.1,-0.7c1,0 1.9,0.2 2.6,0.5s1.3,0.8 1.7,1.4s0.6,1.3 0.6,2.1c0,0.7 -0.2,1.4 -0.5,2s-0.9,1.4 -1.8,2.2l-3.1,2.9l5.9,0l0,-0.2z" class="cls-1"/>
     <path id="svg_26" fill="#fff" d="m41.7,203.914c-0.9,-0.5 -1.5,-1.3 -2,-2.4c-0.5,-1 -0.7,-2.3 -0.7,-3.7s0.2,-2.7 0.7,-3.7s1.2,-1.8 2,-2.4c0.9,-0.5 1.8,-0.8 2.9,-0.8s2.1,0.3 2.9,0.8c0.9,0.5 1.5,1.3 2,2.4c0.5,1 0.7,2.3 0.7,3.7s-0.2,2.7 -0.7,3.7s-1.2,1.8 -2,2.4c-0.9,0.5 -1.8,0.8 -2.9,0.8s-2,-0.2 -2.9,-0.8zm4.8,-2.8c0.5,-0.7 0.7,-1.8 0.7,-3.2c0,-1.5 -0.2,-2.5 -0.7,-3.2s-1.1,-1 -1.9,-1s-1.4,0.3 -1.9,1s-0.7,1.8 -0.7,3.2c0,1.5 0.2,2.5 0.7,3.2s1.1,1 1.9,1c0.9,0.1 1.5,-0.3 1.9,-1z" class="cls-1"/>
    </g>
    <g id="svg_27" isolation="isolate" class="cls-2">
     <path id="svg_28" fill="#fff" d="m41.4,141.214l-2.2,0l0,2.8l-3,0l0,-2.8l-7.1,0l0,-2.1l6.3,-8.4l3.2,0l-5.8,8l3.6,0l0,-2.5l2.9,0l0,2.5l2.2,0l-0.1,2.5l0,0z" class="cls-1"/>
     <path id="svg_29" fill="#fff" d="m45.1,143.414c-0.9,-0.5 -1.5,-1.3 -2,-2.4c-0.5,-1 -0.7,-2.3 -0.7,-3.7s0.2,-2.7 0.7,-3.7s1.2,-1.8 2,-2.4c0.9,-0.5 1.8,-0.8 2.9,-0.8s2.1,0.3 2.9,0.8c0.9,0.5 1.5,1.3 2,2.4c0.5,1 0.7,2.3 0.7,3.7s-0.2,2.7 -0.7,3.7s-1.2,1.8 -2,2.4c-0.9,0.5 -1.8,0.8 -2.9,0.8s-2,-0.2 -2.9,-0.8zm4.9,-2.8c0.5,-0.7 0.7,-1.8 0.7,-3.2c0,-1.5 -0.2,-2.5 -0.7,-3.2s-1.1,-1 -1.9,-1s-1.4,0.3 -1.9,1s-0.7,1.8 -0.7,3.2c0,1.5 0.2,2.5 0.7,3.2s1.1,1 1.9,1c0.8,0.1 1.4,-0.3 1.9,-1z" class="cls-1"/>
    </g>
    <g id="svg_30" isolation="isolate" class="cls-2">
     <path id="svg_31" fill="#d40000" d="m68.9,80.714c0.7,0.3 1.2,0.8 1.7,1.5c0.4,0.6 0.6,1.4 0.6,2.2c0,0.9 -0.2,1.7 -0.7,2.3c-0.4,0.7 -1,1.2 -1.8,1.5c-0.8,0.4 -1.6,0.5 -2.6,0.5c-1.9,0 -3.3,-0.6 -4.4,-1.7c-1.1,-1.1 -1.6,-2.8 -1.6,-4.9c0,-1.5 0.3,-2.8 0.9,-3.9c0.6,-1.1 1.4,-1.9 2.4,-2.5s2.2,-0.8 3.5,-0.8c0.7,0 1.4,0.1 2,0.2c0.7,0.2 1.2,0.4 1.7,0.7l-1.1,2.3c-0.7,-0.4 -1.5,-0.7 -2.5,-0.7c-1.1,0 -2,0.3 -2.7,1s-1,1.6 -1.1,2.9c0.8,-0.8 1.9,-1.2 3.3,-1.2c0.9,0.1 1.7,0.3 2.4,0.6zm-1.4,5.2c0.4,-0.4 0.6,-0.8 0.6,-1.4s-0.2,-1.1 -0.6,-1.5s-1,-0.5 -1.6,-0.5c-0.7,0 -1.2,0.2 -1.7,0.6c-0.4,0.4 -0.6,0.9 -0.6,1.4s0.2,1.1 0.6,1.4s1,0.6 1.7,0.6s1.2,-0.2 1.6,-0.6z" class="cls-6"/>
     <path id="svg_32" fill="#d40000" d="m75,87.914c-0.9,-0.5 -1.5,-1.3 -2,-2.4c-0.5,-1 -0.7,-2.3 -0.7,-3.7s0.2,-2.7 0.7,-3.7s1.2,-1.8 2,-2.4c0.9,-0.5 1.8,-0.8 2.9,-0.8s2.1,0.3 2.9,0.8c0.9,0.5 1.5,1.3 2,2.4c0.5,1 0.7,2.3 0.7,3.7s-0.2,2.7 -0.7,3.7s-1.2,1.8 -2,2.4c-0.9,0.5 -1.8,0.8 -2.9,0.8s-2,-0.2 -2.9,-0.8zm4.9,-2.8c0.5,-0.7 0.7,-1.8 0.7,-3.2c0,-1.5 -0.2,-2.5 -0.7,-3.2s-1.1,-1 -1.9,-1s-1.4,0.3 -1.9,1s-0.7,1.8 -0.7,3.2c0,1.5 0.2,2.5 0.7,3.2s1.1,1 1.9,1c0.8,0.1 1.4,-0.3 1.9,-1z" class="cls-6"/>
    </g>
    <g id="svg_33" isolation="isolate" class="cls-2">
     <path id="svg_34" fill="#fff" d="m123.1,44.114c0.3,0.5 0.5,1.1 0.5,1.8c0,0.8 -0.2,1.5 -0.7,2.2s-1.1,1.1 -2,1.4c-0.8,0.3 -1.8,0.5 -2.9,0.5s-2.1,-0.2 -2.9,-0.5s-1.5,-0.8 -2,-1.4s-0.7,-1.3 -0.7,-2.2c0,-0.7 0.2,-1.3 0.5,-1.8s0.8,-1 1.5,-1.3c-0.5,-0.3 -0.9,-0.7 -1.1,-1.1c-0.3,-0.5 -0.4,-1 -0.4,-1.6c0,-0.8 0.2,-1.4 0.6,-2s1,-1 1.8,-1.3s1.7,-0.5 2.7,-0.5s1.9,0.2 2.7,0.5s1.4,0.8 1.8,1.3c0.4,0.6 0.6,1.2 0.6,2c0,0.6 -0.1,1.1 -0.4,1.6s-0.7,0.8 -1.2,1.1c0.7,0.4 1.2,0.8 1.6,1.3zm-3.3,3.2c0.4,-0.3 0.7,-0.8 0.7,-1.4s-0.2,-1 -0.7,-1.4s-1.1,-0.5 -1.8,-0.5c-0.8,0 -1.4,0.2 -1.8,0.5s-0.7,0.8 -0.7,1.4s0.2,1.1 0.7,1.4s1,0.5 1.8,0.5s1.4,-0.2 1.8,-0.5zm-3.3,-8.3c-0.4,0.3 -0.6,0.7 -0.6,1.2s0.2,0.9 0.6,1.2s0.9,0.4 1.5,0.4s1.1,-0.1 1.5,-0.4c0.4,-0.3 0.6,-0.7 0.6,-1.2s-0.2,-0.9 -0.6,-1.2s-0.9,-0.4 -1.5,-0.4c-0.6,0 -1.1,0.1 -1.5,0.4z" class="cls-1"/>
     <path id="svg_35" fill="#fff" d="m127.8,49.214c-0.9,-0.5 -1.5,-1.3 -2,-2.4c-0.5,-1 -0.7,-2.3 -0.7,-3.7s0.2,-2.7 0.7,-3.7s1.2,-1.8 2,-2.4c0.9,-0.5 1.8,-0.8 2.9,-0.8s2.1,0.3 2.9,0.8c0.9,0.5 1.5,1.3 2,2.4c0.5,1 0.7,2.3 0.7,3.7s-0.2,2.7 -0.7,3.7s-1.2,1.8 -2,2.4c-0.9,0.5 -1.8,0.8 -2.9,0.8s-2.1,-0.2 -2.9,-0.8zm4.8,-2.8c0.5,-0.7 0.7,-1.8 0.7,-3.2c0,-1.5 -0.2,-2.5 -0.7,-3.2s-1.1,-1 -1.9,-1s-1.4,0.3 -1.9,1s-0.7,1.8 -0.7,3.2c0,1.5 0.2,2.5 0.7,3.2s1.1,1 1.9,1c0.8,0.1 1.5,-0.3 1.9,-1z" class="cls-1"/>
    </g>
    <g id="svg_36" isolation="isolate" class="cls-2">
     <path id="svg_37" fill="#fff" d="m165.2,25.414l0,13.3l-3.1,0l0,-10.8l-2.7,0l0,-2.5l5.8,0z" class="cls-1"/>
     <path id="svg_38" fill="#fff" d="m170.3,38.114c-0.9,-0.5 -1.5,-1.3 -2,-2.4c-0.5,-1 -0.7,-2.3 -0.7,-3.7s0.2,-2.7 0.7,-3.7s1.2,-1.8 2,-2.4c0.9,-0.5 1.8,-0.8 2.9,-0.8s2.1,0.3 2.9,0.8c0.9,0.5 1.5,1.3 2,2.4c0.5,1 0.7,2.3 0.7,3.7s-0.2,2.7 -0.7,3.7s-1.2,1.8 -2,2.4c-0.9,0.5 -1.8,0.8 -2.9,0.8s-2.1,-0.2 -2.9,-0.8zm4.8,-2.8c0.5,-0.7 0.7,-1.8 0.7,-3.2c0,-1.5 -0.2,-2.5 -0.7,-3.2s-1.1,-1 -1.9,-1s-1.4,0.3 -1.9,1s-0.7,1.8 -0.7,3.2c0,1.5 0.2,2.5 0.7,3.2s1.1,1 1.9,1c0.7,0.1 1.5,-0.3 1.9,-1z" class="cls-1"/>
     <path id="svg_39" fill="#fff" d="m183.2,38.114c-0.9,-0.5 -1.5,-1.3 -2,-2.4c-0.5,-1 -0.7,-2.3 -0.7,-3.7s0.2,-2.7 0.7,-3.7s1.2,-1.8 2,-2.4c0.9,-0.5 1.8,-0.8 2.9,-0.8s2.1,0.3 2.9,0.8c0.9,0.5 1.5,1.3 2,2.4c0.5,1 0.7,2.3 0.7,3.7s-0.2,2.7 -0.7,3.7s-1.2,1.8 -2,2.4c-0.9,0.5 -1.8,0.8 -2.9,0.8s-2.1,-0.2 -2.9,-0.8zm4.8,-2.8c0.5,-0.7 0.7,-1.8 0.7,-3.2c0,-1.5 -0.2,-2.5 -0.7,-3.2s-1.1,-1 -1.9,-1s-1.4,0.3 -1.9,1s-0.7,1.8 -0.7,3.2c0,1.5 0.2,2.5 0.7,3.2s1.1,1 1.9,1c0.8,0.1 1.5,-0.3 1.9,-1z" class="cls-1"/>
    </g>
    <g id="svg_40" isolation="isolate" class="cls-2">
     <path id="svg_41" fill="#fff" d="m218.2,36.414l0,13.3l-3.1,0l0,-10.8l-2.7,0l0,-2.5l5.8,0z" class="cls-1"/>
     <path id="svg_42" fill="#fff" d="m230.5,47.214l0,2.5l-10.1,0l0,-2l5.1,-4.8c0.5,-0.5 0.9,-1 1.1,-1.3c0.2,-0.4 0.3,-0.7 0.3,-1.1c0,-0.5 -0.2,-0.9 -0.5,-1.2s-0.9,-0.4 -1.6,-0.4c-0.6,0 -1.1,0.1 -1.6,0.3s-0.9,0.6 -1.2,1l-2.2,-1.4c0.5,-0.8 1.2,-1.4 2.1,-1.8c0.9,-0.4 2,-0.7 3.1,-0.7c1,0 1.9,0.2 2.6,0.5c0.7,0.3 1.3,0.8 1.7,1.4s0.6,1.3 0.6,2.1c0,0.7 -0.2,1.4 -0.5,2s-0.9,1.4 -1.8,2.2l-3.1,2.9l6,0l0,-0.2z" class="cls-1"/>
     <path id="svg_43" fill="#fff" d="m234.4,49.114c-0.9,-0.5 -1.5,-1.3 -2,-2.4c-0.5,-1 -0.7,-2.3 -0.7,-3.7s0.2,-2.7 0.7,-3.7s1.2,-1.8 2,-2.4c0.9,-0.5 1.8,-0.8 2.9,-0.8s2.1,0.3 2.9,0.8c0.9,0.5 1.5,1.3 2,2.4c0.5,1 0.7,2.3 0.7,3.7s-0.2,2.7 -0.7,3.7s-1.2,1.8 -2,2.4c-0.9,0.5 -1.8,0.8 -2.9,0.8s-2,-0.2 -2.9,-0.8zm4.9,-2.8c0.5,-0.7 0.7,-1.8 0.7,-3.2c0,-1.5 -0.2,-2.5 -0.7,-3.2s-1.1,-1 -1.9,-1s-1.4,0.3 -1.9,1s-0.7,1.8 -0.7,3.2c0,1.5 0.2,2.5 0.7,3.2s1.1,1 1.9,1c0.8,0.1 1.4,-0.3 1.9,-1z" class="cls-1"/>
    </g>
    <g id="svg_44" isolation="isolate" class="cls-2">
     <path id="svg_45" fill="#fff" d="m266.6,75.214l0,13.3l-3.1,0l0,-10.8l-2.7,0l0,-2.5l5.8,0z" class="cls-1"/>
     <path id="svg_46" fill="#fff" d="m281.1,85.714l-2.2,0l0,2.8l-3,0l0,-2.8l-7.2,0l0,-2.1l6.3,-8.4l3.2,0l-5.8,8l3.6,0l0,-2.5l2.9,0l0,2.5l2.2,0l0,2.5z" class="cls-1"/>
     <path id="svg_47" fill="#fff" d="m284.8,87.914c-0.9,-0.5 -1.5,-1.3 -2,-2.4c-0.5,-1 -0.7,-2.3 -0.7,-3.7s0.2,-2.7 0.7,-3.7s1.2,-1.8 2,-2.4c0.9,-0.5 1.8,-0.8 2.9,-0.8s2.1,0.3 2.9,0.8c0.9,0.5 1.5,1.3 2,2.4c0.5,1 0.7,2.3 0.7,3.7s-0.2,2.7 -0.7,3.7s-1.2,1.8 -2,2.4c-0.9,0.5 -1.8,0.8 -2.9,0.8s-2.1,-0.2 -2.9,-0.8zm4.8,-2.8c0.5,-0.7 0.7,-1.8 0.7,-3.2c0,-1.5 -0.2,-2.5 -0.7,-3.2s-1.1,-1 -1.9,-1s-1.4,0.3 -1.9,1s-0.7,1.8 -0.7,3.2c0,1.5 0.2,2.5 0.7,3.2s1.1,1 1.9,1c0.8,0.1 1.5,-0.3 1.9,-1z" class="cls-1"/>
    </g>
    <g id="svg_48" isolation="isolate" class="cls-2">
     <path id="svg_49" fill="#fff" d="m296.1,130.614l0,13.3l-3.1,0l0,-10.8l-2.7,0l0,-2.5l5.8,0z" class="cls-1"/>
     <path id="svg_50" fill="#fff" d="m307.1,136.114c0.7,0.3 1.2,0.8 1.7,1.5c0.4,0.6 0.6,1.4 0.6,2.2c0,0.9 -0.2,1.7 -0.7,2.3c-0.4,0.7 -1,1.2 -1.8,1.5c-0.8,0.4 -1.6,0.5 -2.6,0.5c-1.9,0 -3.3,-0.6 -4.4,-1.7c-1.1,-1.1 -1.6,-2.8 -1.6,-4.9c0,-1.5 0.3,-2.8 0.9,-3.9c0.6,-1.1 1.4,-1.9 2.4,-2.5s2.2,-0.8 3.5,-0.8c0.7,0 1.4,0.1 2,0.2c0.7,0.2 1.2,0.4 1.7,0.7l-1.1,2.3c-0.7,-0.4 -1.5,-0.7 -2.5,-0.7c-1.1,0 -2,0.3 -2.7,1s-1,1.6 -1.1,2.9c0.8,-0.8 1.9,-1.2 3.3,-1.2c1,0.1 1.7,0.3 2.4,0.6zm-1.3,5.2c0.4,-0.4 0.6,-0.8 0.6,-1.4s-0.2,-1.1 -0.6,-1.5s-1,-0.5 -1.6,-0.5c-0.7,0 -1.2,0.2 -1.7,0.6c-0.4,0.4 -0.6,0.9 -0.6,1.4s0.2,1.1 0.6,1.4c0.4,0.3 1,0.6 1.7,0.6s1.2,-0.2 1.6,-0.6z" class="cls-1"/>
     <path id="svg_51" fill="#fff" d="m313.3,143.314c-0.9,-0.5 -1.5,-1.3 -2,-2.4c-0.5,-1 -0.7,-2.3 -0.7,-3.7s0.2,-2.7 0.7,-3.7s1.2,-1.8 2,-2.4c0.8,-0.6 1.8,-0.8 2.9,-0.8s2.1,0.3 2.9,0.8c0.9,0.5 1.5,1.3 2,2.4c0.5,1 0.7,2.3 0.7,3.7s-0.2,2.7 -0.7,3.7s-1.2,1.8 -2,2.4c-0.9,0.5 -1.8,0.8 -2.9,0.8c-1.1,0.1 -2.1,-0.2 -2.9,-0.8zm4.8,-2.8c0.5,-0.7 0.7,-1.8 0.7,-3.2c0,-1.5 -0.2,-2.5 -0.7,-3.2s-1.1,-1 -1.9,-1s-1.4,0.3 -1.9,1s-0.7,1.8 -0.7,3.2c0,1.5 0.2,2.5 0.7,3.2s1.1,1 1.9,1c0.8,0.1 1.5,-0.3 1.9,-1z" class="cls-1"/>
    </g>
    <g id="svg_52" isolation="isolate" class="cls-2">
     <path id="svg_53" fill="#fff" d="m298.7,191.214l0,13.3l-3.1,0l0,-10.8l-2.7,0l0,-2.5l5.8,0z" class="cls-1"/>
     <path id="svg_54" fill="#fff" d="m311.6,198.814c0.3,0.5 0.5,1.1 0.5,1.8c0,0.8 -0.2,1.5 -0.7,2.2s-1.1,1.1 -2,1.4c-0.8,0.3 -1.8,0.5 -2.9,0.5s-2.1,-0.2 -2.9,-0.5s-1.5,-0.8 -2,-1.4c-0.5,-0.6 -0.7,-1.3 -0.7,-2.2c0,-0.7 0.2,-1.3 0.5,-1.8s0.8,-1 1.5,-1.3c-0.5,-0.3 -0.9,-0.7 -1.1,-1.1c-0.3,-0.5 -0.4,-1 -0.4,-1.6c0,-0.8 0.2,-1.4 0.6,-2s1,-1 1.8,-1.3s1.7,-0.5 2.7,-0.5s1.9,0.2 2.7,0.5c0.8,0.3 1.4,0.8 1.8,1.3c0.4,0.6 0.6,1.2 0.6,2c0,0.6 -0.1,1.1 -0.4,1.6s-0.7,0.8 -1.2,1.1c0.8,0.4 1.3,0.8 1.6,1.3zm-3.2,3.2c0.5,-0.3 0.7,-0.8 0.7,-1.4s-0.2,-1 -0.7,-1.4s-1.1,-0.5 -1.8,-0.5c-0.8,0 -1.4,0.2 -1.8,0.5s-0.7,0.8 -0.7,1.4s0.2,1.1 0.7,1.4s1,0.5 1.8,0.5c0.7,0 1.3,-0.2 1.8,-0.5zm-3.4,-8.3c-0.4,0.3 -0.6,0.7 -0.6,1.2s0.2,0.9 0.6,1.2s0.9,0.4 1.5,0.4s1.1,-0.1 1.5,-0.4s0.6,-0.7 0.6,-1.2s-0.2,-0.9 -0.6,-1.2s-0.9,-0.4 -1.5,-0.4s-1.1,0.1 -1.5,0.4z" class="cls-1"/>
     <path id="svg_55" fill="#fff" d="m316.3,203.914c-0.9,-0.5 -1.5,-1.3 -2,-2.4c-0.5,-1 -0.7,-2.3 -0.7,-3.7s0.2,-2.7 0.7,-3.7s1.2,-1.8 2,-2.4c0.9,-0.5 1.8,-0.8 2.9,-0.8s2.1,0.3 2.9,0.8c0.9,0.5 1.5,1.3 2,2.4c0.5,1 0.7,2.3 0.7,3.7s-0.2,2.7 -0.7,3.7s-1.2,1.8 -2,2.4c-0.9,0.5 -1.8,0.8 -2.9,0.8s-2,-0.2 -2.9,-0.8zm4.9,-2.8c0.5,-0.7 0.7,-1.8 0.7,-3.2c0,-1.5 -0.2,-2.5 -0.7,-3.2s-1.1,-1 -1.9,-1s-1.4,0.3 -1.9,1s-0.7,1.8 -0.7,3.2c0,1.5 0.2,2.5 0.7,3.2s1.1,1 1.9,1c0.8,0.1 1.4,-0.3 1.9,-1z" class="cls-1"/>
    </g>
    <g id="svg_56" isolation="isolate" class="cls-2">
     <path id="svg_57" fill="#fff" d="m273.1,262.614l0,2.5l-10.1,0l0,-2l5.1,-4.8c0.5,-0.5 0.9,-1 1.1,-1.3c0.2,-0.4 0.3,-0.7 0.3,-1.1c0,-0.5 -0.2,-0.9 -0.5,-1.2s-0.9,-0.4 -1.6,-0.4c-0.6,0 -1.1,0.1 -1.6,0.3s-0.9,0.6 -1.2,1l-2.2,-1.4c0.5,-0.8 1.2,-1.4 2.1,-1.8c0.9,-0.4 2,-0.7 3.1,-0.7c1,0 1.9,0.2 2.6,0.5s1.3,0.8 1.7,1.4c0.4,0.6 0.6,1.3 0.6,2.1c0,0.7 -0.2,1.4 -0.5,2s-0.9,1.4 -1.8,2.2l-3.1,2.9l6,0l0,-0.2z" class="cls-1"/>
     <path id="svg_58" fill="#fff" d="m277.1,264.514c-0.9,-0.5 -1.5,-1.3 -2,-2.4c-0.5,-1 -0.7,-2.3 -0.7,-3.7s0.2,-2.7 0.7,-3.7s1.2,-1.8 2,-2.4c0.8,-0.6 1.8,-0.8 2.9,-0.8s2.1,0.3 2.9,0.8c0.9,0.5 1.5,1.3 2,2.4c0.5,1 0.7,2.3 0.7,3.7s-0.2,2.7 -0.7,3.7s-1.2,1.8 -2,2.4c-0.9,0.5 -1.8,0.8 -2.9,0.8c-1.1,0.1 -2,-0.2 -2.9,-0.8zm4.8,-2.8c0.5,-0.7 0.7,-1.8 0.7,-3.2c0,-1.5 -0.2,-2.5 -0.7,-3.2s-1.1,-1 -1.9,-1s-1.4,0.3 -1.9,1s-0.7,1.8 -0.7,3.2c0,1.5 0.2,2.5 0.7,3.2s1.1,1 1.9,1c0.9,0.1 1.5,-0.3 1.9,-1z" class="cls-1"/>
     <path id="svg_59" fill="#fff" d="m290,264.514c-0.9,-0.5 -1.5,-1.3 -2,-2.4c-0.5,-1 -0.7,-2.3 -0.7,-3.7s0.2,-2.7 0.7,-3.7s1.2,-1.8 2,-2.4c0.8,-0.6 1.8,-0.8 2.9,-0.8s2.1,0.3 2.9,0.8s1.5,1.3 2,2.4c0.5,1 0.7,2.3 0.7,3.7s-0.2,2.7 -0.7,3.7s-1.2,1.8 -2,2.4s-1.8,0.8 -2.9,0.8s-2,-0.2 -2.9,-0.8zm4.9,-2.8c0.5,-0.7 0.7,-1.8 0.7,-3.2c0,-1.5 -0.2,-2.5 -0.7,-3.2s-1.1,-1 -1.9,-1s-1.4,0.3 -1.9,1s-0.7,1.8 -0.7,3.2c0,1.5 0.2,2.5 0.7,3.2s1.1,1 1.9,1c0.8,0.1 1.4,-0.3 1.9,-1z" class="cls-1"/>
    </g>
   </g>
  </g>
 </g>
</svg>